<mxfile host="app.diagrams.net" modified="2024-01-23T02:36:03.307Z" agent="Mozilla/5.0 (Windows NT 10.0; Win64; x64) AppleWebKit/537.36 (KHTML, like Gecko) Chrome/120.0.0.0 Safari/537.36" version="22.1.21" etag="mnRYdPLGXEp8oASDxfQk" type="github">
  <diagram name="Page-1" id="DHlQStN6Eopjkq8Kr4y3">
    <mxGraphModel>
      <root>
        <mxCell id="0" />
        <mxCell id="1" parent="0" />
      </root>
    </mxGraphModel>
  </diagram>
</mxfile>
